# xmcd
#
# Track frame offsets:
# 150
# 16321
# 30448
# 46634
# 60173
# 82329
# 101193
# 119385
# 141213
# 155274
# 174043
# 190146
#
# Disc length: 2763 seconds
#
#
# Revision: 2
# Processed by: cddbd v1.5.1PL0 Copyright (c) Steve Scherf et al.
# Submitted via: FreeRIP 2.942 
#
DISCID=8c0ac90c
DTITLE=Chitãozinho and Xororó - Sucessos Sertanejos JT 6
DYEAR=1900
DGENRE=Country
TTITLE0=Coração Sertanejo (Chitãozinho e Xororó)
TTITLE1=Não Acredito (Adalberto e Adriano)
TTITLE2=Página de Amigos (Chitãozinho e Xororó)
TTITLE3=O meu maior Sucesso (Tiãozinho e Alessandro)
TTITLE4=Evidências (Chitãozinho e Xororó)
TTITLE5=Paixão Proibida (Marciano)
TTITLE6=Ternura (Adalberto e Adriano)
TTITLE7=Somos Assim (Chitãozinho e Xororó)
TTITLE8=O Primeiro Pecado (Danny e Daniel)
TTITLE9=Nuvem de Lágrimas (Chitãozinho e Xororó)
TTITLE10=Inferno e Paraíso (Danny e Daniel)
TTITLE11=Cara a Cara, Frente a Frente (Chitãozinho e Xororó)
EXTD=ID3G:   2
EXTT0=
EXTT1=
EXTT2=
EXTT3=
EXTT4=
EXTT5=
EXTT6=
EXTT7=
EXTT8=
EXTT9=
EXTT10=
EXTT11=
PLAYORDER=
